<svg width="46" height="46" viewBox="0 0 46 46" fill="none" xmlns="http://www.w3.org/2000/svg">
<circle cx="23" cy="23" r="23" fill="#36343E"/>
<path fill-rule="evenodd" clip-rule="evenodd" d="M11.0806 21.7489C17.2526 19.2087 21.3682 17.534 23.4274 16.7249C29.307 14.4147 30.5287 14.0134 31.325 14.0001C31.5002 13.9972 31.8917 14.0383 32.1454 14.2327C32.5217 14.5212 32.5238 15.1472 32.4821 15.5616C32.1634 18.7241 30.7848 26.3986 30.0834 29.9406C29.7866 31.4394 29.2022 31.9419 28.6365 31.9911C27.4071 32.098 26.4735 31.2235 25.2826 30.4862C23.4193 29.3323 22.3666 28.614 20.5578 27.488C18.4675 26.1868 19.8226 25.4716 21.0138 24.3028C21.3256 23.9969 26.7427 19.3423 26.8475 18.9201C26.8607 18.8672 26.8728 18.6704 26.749 18.5665C26.6252 18.4626 26.4425 18.498 26.3107 18.5263C26.1238 18.5664 23.147 20.4251 17.3804 24.1023C16.5355 24.6504 15.7701 24.9174 15.0845 24.9034C14.3285 24.888 12.8744 24.4997 11.7934 24.1677C10.4676 23.7606 9.41378 23.5453 9.50557 22.8539C9.55338 22.4937 10.0784 22.1254 11.0806 21.7489Z" fill="white"/>
</svg>
